<svg xmlns="http://www.w3.org/2000/svg" width="798" height="650" viewBox="0 0 798 650" fill="#46d07e" shape-rendering="crispEdges">
<rect x="196" y="0" width="224" height="26"></rect><rect x="168" y="26" width="406" height="26"></rect><rect x="154" y="52" width="448" height="26"></rect><rect x="140" y="78" width="490" height="26"></rect><rect x="126" y="104" width="518" height="26"></rect><rect x="112" y="130" width="574" height="26"></rect><rect x="56" y="156" width="686" height="26"></rect><rect x="42" y="182" width="742" height="26"></rect><rect x="28" y="208" width="280" height="26"></rect><rect x="350" y="208" width="98" height="26"></rect><rect x="490" y="208" width="308" height="26"></rect><rect x="14" y="234" width="280" height="26"></rect><rect x="364" y="234" width="70" height="26"></rect><rect x="504" y="234" width="294" height="26"></rect><rect x="0" y="260" width="280" height="26"></rect><rect x="322" y="260" width="14" height="26"></rect><rect x="378" y="260" width="42" height="26"></rect><rect x="462" y="260" width="14" height="26"></rect><rect x="518" y="260" width="266" height="26"></rect><rect x="0" y="286" width="770" height="26"></rect><rect x="0" y="312" width="308" height="26"></rect><rect x="350" y="312" width="98" height="26"></rect><rect x="490" y="312" width="280" height="26"></rect><rect x="14" y="338" width="308" height="26"></rect><rect x="364" y="338" width="70" height="26"></rect><rect x="476" y="338" width="308" height="26"></rect><rect x="56" y="364" width="280" height="26"></rect><rect x="462" y="364" width="336" height="26"></rect><rect x="112" y="390" width="238" height="26"></rect><rect x="448" y="390" width="350" height="26"></rect><rect x="168" y="416" width="630" height="26"></rect><rect x="168" y="442" width="616" height="26"></rect><rect x="182" y="468" width="588" height="26"></rect><rect x="182" y="494" width="602" height="26"></rect><rect x="196" y="520" width="602" height="26"></rect><rect x="224" y="546" width="518" height="26"></rect><rect x="266" y="572" width="350" height="26"></rect><rect x="630" y="572" width="56" height="26"></rect><rect x="700" y="572" width="56" height="26"></rect><rect x="336" y="598" width="98" height="26"></rect><rect x="644" y="598" width="42" height="26"></rect><rect x="728" y="598" width="56" height="26"></rect><rect x="644" y="624" width="28" height="26"></rect><rect x="742" y="624" width="42" height="26"></rect>
</svg>