<svg width="166" height="138" viewBox="0 0 166 138" fill="none" xmlns="http://www.w3.org/2000/svg">
<path d="M121.8 124.228C116.438 124.797 111.231 125.352 106.023 125.894C98.4911 126.677 90.9648 127.523 83.4251 128.215C67.7352 129.654 53.978 125.364 42.9858 113.343C38.8168 108.783 36.6063 103.163 35.3749 97.0963C34.8522 94.5212 34.2261 91.9679 33.7184 89.3899C33.5107 88.3358 32.7631 88.0349 31.9716 87.6765C24.6785 84.3733 17.3778 81.0875 10.1036 77.7405C5.37909 75.5667 1.69379 72.3321 0.417067 66.9041C-0.283528 63.9255 -0.119111 60.8859 1.04432 58.1109C3.61331 51.9835 6.42061 45.9617 9.12354 39.8935C10.8501 36.0174 13.9986 33.8196 17.6583 32.221C18.7068 31.763 19.7263 31.1695 20.8202 30.8993C23.6589 30.1982 25.0284 28.2034 26.1289 25.5813C28.135 20.8015 30.4329 16.1508 32.6169 11.4502C35.2297 5.82647 39.9255 2.97985 45.4833 1.30586C50.8355 -0.306216 56.2913 -0.178844 61.7593 0.379117C67.9888 1.01477 74.2168 1.66901 80.439 2.37522C85.7008 2.97242 90.9765 3.44133 96.2422 3.98023C100.498 4.41578 104.76 4.6687 108.88 5.89285C119.557 9.06534 128.195 15.0123 133.372 25.446C134.316 27.3477 135.613 28.5585 137.495 29.3697C142.432 31.4972 147.37 33.6332 152.22 35.9588C156.258 37.895 159.741 40.6191 161.923 44.7616C164.202 49.0889 163.949 53.2901 161.193 57.3275C159.886 59.2437 158.619 61.1899 157.291 63.0908C155.929 65.0402 155.843 66.0718 157.199 68.2056C159.103 71.2022 160.959 74.2128 161.991 77.6749C164.05 84.5875 163.733 91.1863 159.585 97.2916C158.704 98.5876 157.827 99.886 156.941 101.178C156.51 101.806 156.003 102.203 155.214 101.761C152.116 100.023 149.013 98.2953 145.916 96.5541C145.66 96.4102 145.5 96.1591 145.5 95.8346C145.584 95.3514 145.975 95.1967 146.344 95.0569C154.365 92.0154 154.875 83.9286 151.767 77.5341C149.732 73.3495 147.328 69.3559 145.132 65.2532C143.21 61.6649 142.74 62.3301 145.908 58.9499C148.122 56.588 150.318 54.209 152.497 51.813C154.086 50.0645 154.076 48.6606 152.462 46.899C150.897 45.1919 148.828 44.3079 146.796 43.391C141.271 40.8987 135.738 38.4251 130.202 35.9594C128.85 35.3572 128.037 34.6146 127.081 33.1135C126.135 31.6282 125.267 30.1227 124.536 28.542C121.287 21.52 115.38 17.9146 108.68 15.2497C104.076 13.604 99.2249 13.3017 94.248 12.7315C91.7129 12.4411 89.5229 12.2436 86.5376 11.8878C87.4932 14.231 88.2433 16.1457 89.0596 18.0301C89.3355 18.6668 89.9992 18.6521 90.5519 18.7433C95.1089 19.1967 99.3071 19.1809 103.654 19.9079C109.068 20.8135 113.293 23.1844 115.352 28.6046C118.029 35.6505 122.967 40.0505 129.829 42.4719C132.678 43.4772 135.415 44.8158 138.207 45.99C140.162 46.8118 140.267 47.3897 138.737 48.9203C137.308 50.3497 135.879 51.7801 134.475 53.2353C131.665 56.1477 131.31 58.9146 133.158 62.6126C135.083 66.4658 137.015 70.2855 138.987 74.114C139.44 74.9917 139.878 75.8827 140.244 76.8011C141.693 80.4453 139.902 83.6325 136.093 84.0697C133.266 84.3941 130.419 84.538 127.585 84.8026C125.769 84.9722 124.148 84.5954 122.532 83.6414C119.278 81.7194 115.922 79.9792 112.605 78.1686C112.162 77.9268 111.748 77.5884 111.036 77.6519C111.392 80.2474 112.549 82.5525 113.394 84.9299C117.729 97.1321 122.171 109.294 126.579 121.469C127.302 123.466 127.208 123.639 125.18 123.861C124.105 123.979 123.029 124.093 121.8 124.228ZM56.4766 27.1169C55.9553 25.3259 55.4046 23.5433 54.9204 21.7418C54.3703 19.695 54.8609 18.397 56.62 17.2739C58.4013 16.1366 60.4012 16.0742 62.4018 16.256C66.6506 16.6422 70.8933 17.1 75.1416 17.4939C75.7277 17.5482 76.3919 17.7519 77.0487 17.0523C76.5202 15.5426 75.9035 13.9843 75.436 12.3801C75.0715 11.1294 74.4089 10.6464 73.1174 10.5542C68.2925 10.2095 63.4799 9.6858 58.6565 9.3153C54.4772 8.99429 50.3375 9.16591 46.4284 10.9962C42.6716 12.7552 41.1625 15.2471 41.369 19.447C41.5166 22.4505 42.5724 25.2656 43.21 28.1654C43.8753 31.1906 43.9652 31.1534 41.1288 32.4519C34.5744 35.4524 28.0186 38.45 21.481 41.489C19.1189 42.587 18.2299 44.9189 19.2657 47.1288C19.8416 48.3574 20.9545 49.0002 22.0847 49.5778C30.3473 53.7999 38.7801 57.6455 47.2027 61.5109C51.8564 63.6467 51.7839 63.6125 52.7429 68.7803C53.467 72.6827 54.4521 76.5352 55.3618 80.3997C58.5614 93.9931 72.8783 100.636 82.9746 101.408C91.8552 102.087 100.661 100.178 109.501 99.4407C109.699 99.4243 110.103 99.3091 110.103 99.158C108.734 95.4285 107.391 91.7526 106.21 88.0408C105.71 86.4702 104.96 86.06 103.499 86.1906C98.0572 86.6768 92.609 87.0828 87.1656 87.5458C84.9508 87.7342 82.7516 87.9714 80.5564 87.324C76.125 86.0172 72.4753 83.8397 71.1907 78.856C70.4764 76.0853 69.7613 73.3128 68.951 70.5709C68.1107 67.7274 67.6718 64.7523 66.2788 62.0855C63.9228 57.575 59.9216 55.2233 55.5712 53.2657C51.1921 51.2952 46.8515 49.2342 42.4974 47.2055C41.9371 46.9444 41.2292 46.755 41.2356 45.9539C41.2418 45.1912 41.9092 44.9301 42.4511 44.6198C42.7486 44.4494 43.0765 44.3363 43.3824 44.1802C47.0046 42.3317 50.6658 40.558 54.2341 38.6053C57.327 36.9127 58.1888 34.7495 57.4389 31.3101C57.1537 30.0017 56.8447 28.6988 56.4766 27.1169ZM83.4629 64.8194C84.1622 66.8612 84.901 68.8899 85.5487 70.9489C86.1121 72.7398 87.2989 73.4371 89.0509 73.3467C93.7123 73.1062 98.3744 72.8787 103.036 72.6377C103.478 72.6149 103.831 72.6075 104.223 71.95C102.574 69.7756 99.7888 67.1478 98.851 65.6469C98.7839 65.148 100.688 65.0604 101.535 65.0327C103.584 64.9656 105.522 64.8805 107.68 64.8129C109.05 64.7699 109.991 64.9532 111.01 65.7597C113.444 67.6871 115.931 69.5463 118.414 71.407C119.5 72.2203 122.476 72.3438 123.306 71.6385C124.511 70.6153 123.549 69.6376 123.162 68.81C117.173 56.0015 111.005 43.2682 105.059 30.4392C104.074 28.3143 102.654 27.5466 100.527 27.4687C97.4574 27.3563 94.3918 27.1202 91.3251 26.9259C85.1334 26.5336 78.9437 26.1047 72.7497 25.7548C70.8592 25.648 70.5064 26.2151 71.1354 28.0909C75.2121 40.248 79.3034 52.4002 83.4629 64.8194Z" fill="black"/>
<path d="M150.462 130.163C147.757 126.88 145.13 123.693 142.261 120.213C140.882 123.312 139.618 126.087 138.411 128.888C137.399 131.236 136.467 133.62 135.471 135.975C135.234 136.534 135.112 137.335 134.3 137.28C133.607 137.234 133.492 136.502 133.31 135.984C131.745 131.541 130.137 127.112 128.689 122.628C126.222 114.993 123.395 107.496 120.712 99.9432C118.728 94.3587 116.792 88.7558 114.853 83.1547C114.675 82.64 114.186 82.0337 114.757 81.5443C115.301 81.0785 115.813 81.5875 116.304 81.861C131.934 90.5716 147.706 99.014 163.142 108.09C164.762 109.319 164.762 109.168 165.321 110.154C164.909 110.982 163.733 111.133 162.557 111.587C158.519 112.55 154.467 113.321 150.428 114.282C150.107 114.358 149.808 114.528 149.291 114.74C150.238 116.595 151.72 117.885 152.917 119.382C155.552 122.676 158.28 125.891 160.933 129.169C162.552 131.168 162.459 132.036 160.652 133.761C156.089 138.116 155.57 136.747 152.922 133.235C152.156 132.22 151.335 131.25 150.462 130.163Z" fill="black"/>
</svg>
